<?xml version="1.0" encoding="utf-8"?>
<!-- Generator: Adobe Illustrator 22.1.0, SVG Export Plug-In . SVG Version: 6.00 Build 0)  -->
<svg version="1.1" id="Layer_1" xmlns="http://www.w3.org/2000/svg" xmlns:xlink="http://www.w3.org/1999/xlink" x="0px" y="0px"
	 viewBox="0 0 326 190" style="enable-background:new 0 0 326 190;" xml:space="preserve">
<style type="text/css">
	.st0{fill:#FFFFFF;}
</style>
<path class="st0" d="M178.1,72.1c-6.5,0-12.1,4.2-14.1,10.1h-1.7c-2-5.8-7.6-10.1-14.1-10.1c-8.3,0-15,6.7-15,15
	c0,4.3,1.8,8.2,4.8,11h0l24,24h2.4l23.6-23.6c3.2-2.8,5.2-6.8,5.2-11.3C193.1,78.9,186.3,72.1,178.1,72.1z"/>
<path class="st0" d="M126,89.6h-5v5h5V89.6z"/>
<path class="st0" d="M205.6,89.6h-5v5h5V89.6z"/>
<path class="st0" d="M133,118.6l3.5,3.5l7.1-7.1l-3.5-3.5L133,118.6z"/>
<path class="st0" d="M189.5,122.1l3.5-3.5l-7.1-7.1l-3.5,3.5L189.5,122.1z"/>
<path class="st0" d="M140.1,69.6l3.5-3.5l-7.1-7.1l-3.5,3.5L140.1,69.6z"/>
<path class="st0" d="M182.5,66.1l3.5,3.5l7.1-7.1l-3.5-3.5L182.5,66.1z"/>
<path class="st0" d="M136.9,167.6h3.4v20.1l2.2,2.2l5.6-5.6l-1.1-1.1l-2.2,2.2v-17.9l4.5-4.5h-4.5v-3.4L136.9,167.6z"/>
<path class="st0" d="M217.8,159.8v4.5l-3.4,3.4h3.4v20.1l2.2,2.2l2.2-2.2v-20.1l4.5-4.5h-4.5v-7.8L217.8,159.8z"/>
<path class="st0" d="M225.6,152l-3.4,3.4l3.4,3.4l3.4-3.4L225.6,152z"/>
<path class="st0" d="M165.6,157.6l2.2,2.2v25.7l4.5,4.5l3.4-3.4l-3.4-3.4v-16.8v-8.9l-3.4-3.4L165.6,157.6z"/>
<path class="st0" d="M172.3,166.5l3.4,3.4v16.8l4.5-4.5v-14.5l-4.5-4.5L172.3,166.5z"/>
<path class="st0" d="M74.1,155.9l2.4,2.3v5.8l-5.8,5.8v-14l-3.5-3.5l0,0l0,0l-7.1,7l1.2,1.2l3.5-3.5l1.2,1.2v29.3l2.4,2.3l2.4-2.3
	V175l5.8-5.8v16.1l4.7,4.7l5.9-5.9l-1.2-1.2l-2.4,2.3l-2.4-2.3v-27l-3.5-3.5L74.1,155.9z"/>
<path class="st0" d="M254.7,167.6h3.4v20.1l2.2,2.2l5.6-5.6l-1.1-1.1l-2.2,2.2v-17.9l4.5-4.5h-4.5v-3.4L254.7,167.6z"/>
<path class="st0" d="M151.1,171v14.5l4.5,4.5l3.4-3.4l-3.4-3.4v-16.8L151.1,171z"/>
<path class="st0" d="M155.5,166.5l3.4,3.4l0,16.8l4.5-4.5v-14.5l-4.5-4.5L155.5,166.5z"/>
<path class="st0" d="M188.7,166.5l-4.5,4.5v14.5l4.5,4.5l6.7-6.7l-1.1-1.1l-3.4,3.4l-2.2-2.2v-7.9l7.8-7.8l-4.4-4.4L188.7,166.5z
	 M188.7,166.5l3.3,3.3l-3.3,3.3V166.5z"/>
<path class="st0" d="M89.9,171v14.5l4.5,4.5l3.4-3.4l-3.4-3.4v-16.8L89.9,171z"/>
<path class="st0" d="M94.4,166.5l3.4,3.4v16.8l3.4,3.4l3.4-3.4l-2.2-2.2v-16.8l-4.5-4.5L94.4,166.5z"/>
<path class="st0" d="M107.4,171v14.5l4.5,4.5l6.7-6.7l-1.1-1.1l-3.4,3.4l-2.2-2.2v-16.8L107.4,171z"/>
<path class="st0" d="M111.9,166.5l3.4,3.4l3.4-3.4l-3.4-3.4L111.9,166.5z"/>
<path class="st0" d="M130.2,163.2l-3.4,3.4l3.4,3.4l3.4-3.4L130.2,163.2z"/>
<path class="st0" d="M126.8,173.2l2.2,2.2v12.3l2.2,2.2l2.2-2.2v-14.5l-3.4-3.4L126.8,173.2z"/>
<path class="st0" d="M120.1,157.6l2.2,2.2v27.9l2.2,2.2l2.2-2.2v-14.5v-6.7v-8.9l-3.4-3.4L120.1,157.6z"/>
<path class="st0" d="M232.7,166.5l-4.5,4.5v14.5l4.5,4.5l6.7-6.7l-1.1-1.1l-3.4,3.4l-2.2-2.2v-7.9l7.8-7.8l-4.4-4.4L232.7,166.5z
	 M232.7,166.5l3.3,3.3l-3.3,3.3V166.5z"/>
<path class="st0" d="M205.5,166.5l3.4,3.4l3.4-3.4l-3.4-3.4L205.5,166.5z"/>
<path class="st0" d="M198.8,166.5l2.2,2.2v19l2.2,2.2l2.2-2.2v-21.2l-3.4-3.4L198.8,166.5z"/>
<path class="st0" d="M243.5,186.6l3.4,3.4l3.4-3.4l-3.4-3.4L243.5,186.6z"/>
<path class="st0" d="M253.6,166.5l-3.4-3.4l-3.4,3.4l3.4,3.4L253.6,166.5z"/>
<path class="st0" d="M243.5,169.9v4.5l6.7,6.7v5.6l3.4-3.4v-5.6l-6.7-6.7v-4.5L243.5,169.9z"/>
<g>
	<g>
		<g>
			<g>
				<g>
					<path class="st0" d="M69.1,4.2c-1.3,1.3-8.2,12.5-9.6,12.5c-1,0-2.5-2.9-3.4-4.4C53,7.2,49.6,2.2,44,2.2
						c-2.7,0-5.5,1.4-7.3,3.5c-1.6-2.2-3.3-3.5-7.2-3.5c-3.7,0-7.1,1.8-8.3,4.9c-0.4-2.3-1.1-4.4-5.2-4.8C8.8,1.7,3.9,7.3,2.6,13.7
						c-0.9,4,1.7,8.7,7.2,8.7c3.2,0,5.7-1.3,6.6-2.9c0,0-0.7,8-7.7,8c-4,0-6.7-2.7-6.7-2.7l-0.7,2.8c-0.6,2.7,2.7,4.9,6.6,4.9
						c5.7,0,10.7-3.6,12.2-7.3c1.5-3.6,3.8-13.3,3.8-13.3c0.7-3.1,2.8-4.8,4.9-4.8c2.5,0,3.8,1.6,2.9,5.3l-2.1,8.7
						c-0.6,2.7,0.7,4.1,3.1,4.1h1.5l3.2-13.4c0.7-3.1,2.7-4.7,4.9-4.7c2.5,0,3.7,1.6,2.9,5.3l-2.1,8.7c-0.6,2.4,0.4,4.1,3.5,4.1h0.7
						c0,0,0.7-11.6,3.5-11.6c2.3,0,4.8,8.2,7.4,11.1c0,0,0.9,0.9,1.8,0C60.8,24,74.7,5,76.3,3.7C74.8,2.5,71.5,1.8,69.1,4.2z
						 M17.9,12.4c-0.8,3.6-3.3,5.7-6.1,5.7c-2.7,0-3.9-2.2-3.3-5.1c0.8-3.4,3.5-5.8,6.4-5.8C17.4,7.2,18.7,8.9,17.9,12.4z"/>
				</g>
				<g>
					<path class="st0" d="M78.6,2.6C79.4,2.6,80,3.2,80,4c0,0.8-0.7,1.5-1.5,1.5c-0.8,0-1.5-0.7-1.5-1.5C77.1,3.2,77.8,2.6,78.6,2.6
						z M78.6,5.2c0.7,0,1.2-0.5,1.2-1.2c0-0.7-0.5-1.2-1.2-1.2c-0.7,0-1.2,0.5-1.2,1.2C77.4,4.7,77.9,5.2,78.6,5.2z M78,3.2h0.6
						c0.4,0,0.6,0.2,0.6,0.5c0,0.3-0.2,0.4-0.4,0.5l0.4,0.7H79l-0.4-0.7h-0.2v0.7H78V3.2z M78.3,3.9h0.2c0.2,0,0.4,0,0.4-0.2
						c0-0.2-0.2-0.2-0.4-0.2h-0.2V3.9z"/>
				</g>
			</g>
		</g>
	</g>
	<g>
		<path class="st0" d="M97.4,4.2l-2.9,3c-0.9-1.2-2.4-1.8-3.9-1.8c-2.2,0-3.6,1.1-3.6,2.9c0,1.5,1.3,2.3,3.5,3
			c3.5,1.1,7.1,2.2,7.1,6.8s-3.6,7.1-8,7.1c-3.1,0-5.7-0.9-7.4-3l3-2.9c1,1.5,2.6,2.3,4.4,2.3c2.1,0,3.9-1.3,3.9-3
			c0-1.7-1.1-2.5-4-3.4c-4-1.2-6.6-2.6-6.6-6.6c0-4,3.4-6.7,8.2-6.7C93.6,1.9,95.9,2.7,97.4,4.2z"/>
		<path class="st0" d="M103.7,2.5l5.5,8.9l5.5-8.9h4.7l-8.3,12.7v9.5h-4v-9.5L98.8,2.5H103.7z"/>
		<path class="st0" d="M126.7,2.5L137.5,19h0.1V2.5h4v22.2h-5l-11-17h-0.1v17h-4V2.5H126.7z"/>
		<path class="st0" d="M164.8,5.4l-3.1,2.3c-1.3-1.4-2.7-2.2-4.7-2.2c-4.6,0-7.6,3.5-7.6,7.9c0,4.6,3,8.3,7.6,8.3
			c2.1,0,3.7-1.1,5-2.7l3.3,2.3c-1.9,2.7-5,4-8.3,4c-6.8,0-11.7-4.7-11.7-11.6c0-6.9,4.6-11.8,11.7-11.8
			C160.2,1.9,162.7,3.1,164.8,5.4z"/>
		<path class="st0" d="M175.8,2.5c4.3,0,8.2,1.5,8.2,6.4c0,3.3-2,5.6-5.1,6l5.9,9.8h-4.8l-5.1-9.4h-2.9v9.4h-4V2.5H175.8z
			 M175.2,11.9c2.3,0,4.6-0.3,4.6-3.1c0-2.5-2.3-3-4.4-3h-3.5v6H175.2z"/>
		<path class="st0" d="M198.2,25.3c-6.8,0-11.7-4.7-11.7-11.6c0-6.4,4.1-11.8,11.9-11.8c7,0,11.7,4.7,11.7,11.6
			C210.1,20.5,205,25.3,198.2,25.3z M198.3,21.7c4.8,0,7.7-3.7,7.7-8.3c0-4.6-3.1-7.9-7.7-7.9c-4.5,0-7.6,3.5-7.6,7.9
			C190.7,18,193.5,21.7,198.3,21.7z"/>
		<path class="st0" d="M220,2.5l5.9,15.6l6-15.6h6v22.2h-3.8V6.3H234l-6.7,18.5h-2.8l-6.7-18.5h-0.1v18.5h-3.8V2.5H220z"/>
		<path class="st0" d="M253.5,2.5l9.6,22.2h-4.5l-2.1-5.1h-9.6l-2,5.1h-4.4l9.7-22.2H253.5z M248.2,16.2h6.9l-3.4-9L248.2,16.2z"/>
		<path class="st0" d="M278,2.5v3.6h-6.8v18.6h-4V6.1h-6.8V2.5H278z"/>
		<path class="st0" d="M284.6,2.5v22.2h-4V2.5H284.6z"/>
		<path class="st0" d="M307.8,5.4l-3.1,2.3c-1.3-1.4-2.7-2.2-4.7-2.2c-4.6,0-7.6,3.5-7.6,7.9c0,4.6,3,8.3,7.6,8.3
			c2.1,0,3.7-1.1,5-2.7l3.3,2.3c-1.9,2.7-5,4-8.3,4c-6.8,0-11.7-4.7-11.7-11.6c0-6.9,4.6-11.8,11.7-11.8
			C303.1,1.9,305.7,3.1,307.8,5.4z"/>
		<path class="st0" d="M324.7,4.2l-2.9,3c-0.9-1.2-2.4-1.8-3.9-1.8c-2.2,0-3.6,1.1-3.6,2.9c0,1.5,1.3,2.3,3.5,3
			c3.5,1.1,7.1,2.2,7.1,6.8s-3.6,7.1-8,7.1c-3.1,0-5.7-0.9-7.4-3l3-2.9c1,1.5,2.6,2.3,4.4,2.3c2.1,0,3.9-1.3,3.9-3
			c0-1.7-1.1-2.5-4-3.4c-4-1.2-6.6-2.6-6.6-6.6c0-4,3.4-6.7,8.2-6.7C320.9,1.9,323.1,2.7,324.7,4.2z"/>
	</g>
</g>
</svg>
